<svg width="28" height="28" viewBox="0 0 28 28" fill="none" xmlns="http://www.w3.org/2000/svg">
<path d="M8.20175 5.77533L4.08342 9.91699C0.198415 13.7787 0.198415 20.0553 4.08342 23.917C7.96842 27.7787 14.2217 27.802 18.0834 23.917L25.0834 16.917C26.2501 15.7853 26.2501 13.9303 25.0834 12.787C24.9667 12.647 24.8151 12.5187 24.6517 12.4137L25.0834 11.9587C26.2501 10.827 26.2501 8.97199 25.0834 7.82866C24.9201 7.64199 24.6984 7.47866 24.5001 7.35033C24.9434 6.27699 24.7451 4.99366 23.8701 4.11866C22.8551 3.10366 21.2801 2.99866 20.1367 3.79199C19.8993 3.42633 19.5835 3.11812 19.2122 2.88973C18.8408 2.66134 18.4233 2.5185 17.9898 2.47159C17.5564 2.42467 17.118 2.47485 16.7063 2.61848C16.2947 2.76212 15.9202 2.9956 15.6101 3.30199L12.6817 6.23033C12.5767 6.06699 12.4484 5.91533 12.3084 5.77533C11.7578 5.24217 11.0215 4.94407 10.2551 4.94407C9.48868 4.94407 8.75232 5.24217 8.20175 5.77533ZM9.84675 7.43199C10.0801 7.19866 10.4417 7.19866 10.6751 7.43199C10.9084 7.66533 10.9084 8.02699 10.6751 8.26033L6.96508 11.9703C7.62052 12.6266 7.98867 13.5162 7.98867 14.4437C7.98867 15.3712 7.62052 16.2607 6.96508 16.917L8.61008 18.562C9.41247 17.7597 9.96346 16.7408 10.1955 15.6301C10.4276 14.5194 10.3307 13.3651 9.91675 12.3087L17.2667 4.95866C17.5001 4.72533 17.8617 4.72533 18.0834 4.95866C18.3051 5.19199 18.3284 5.55366 18.0834 5.78699L12.7284 11.1537L14.3734 12.7987L21.3851 5.78699C21.6184 5.55366 21.9801 5.55366 22.2134 5.78699C22.4468 6.02033 22.4468 6.38199 22.2134 6.61533L15.2017 13.627L16.8467 15.272L22.6217 9.49699C22.8551 9.26366 23.2167 9.26366 23.4501 9.49699C23.6834 9.73033 23.6834 10.092 23.4501 10.3253L16.8467 16.917L18.4917 18.5737L22.6217 14.4437C22.8551 14.2103 23.2167 14.2103 23.4501 14.4437C23.6834 14.677 23.6834 15.0387 23.4501 15.272L16.4501 22.2837C13.4867 25.247 8.69175 25.247 5.72842 22.2837C2.76508 19.3203 2.76508 14.5253 5.72842 11.562L9.84675 7.43199ZM26.8334 19.8337C26.8334 23.6953 23.6951 26.8337 19.8334 26.8337V25.0837C22.7501 25.0837 25.0834 22.7503 25.0834 19.8337H26.8334ZM1.16675 8.16699C1.16675 4.30533 4.30508 1.16699 8.16675 1.16699V2.91699C5.25008 2.91699 2.91675 5.25033 2.91675 8.16699H1.16675Z" fill="#484848"/>
</svg>
