<svg width="135" height="153" viewBox="0 0 135 153" fill="none" xmlns="http://www.w3.org/2000/svg">
<path d="M40.6065 1.68164H94.6708C97.7977 1.68164 100.335 4.21931 100.335 7.34619V80.8189H34.9456V7.34619C34.9456 4.21931 37.4832 1.68164 40.6101 1.68164H40.6065Z" fill="url(#paint0_linear_6_2495)"/>
<path d="M94.6707 1.6806C97.7976 1.6806 100.335 4.21466 100.335 7.34516V80.8178H34.9455V7.34516C34.9455 4.21828 37.4795 1.6806 40.61 1.6806H94.6743M94.6707 0.310547H40.6064C36.7276 0.310547 33.5754 3.46637 33.5754 7.34154V82.1843H101.702V7.34154C101.702 3.46276 98.5459 0.310547 94.6707 0.310547Z" fill="#3A2000"/>
<path d="M54.6611 72.3998V1.68164H40.6064C37.4795 1.68164 34.9419 4.2157 34.9419 7.34619V72.3998H54.6575H54.6611Z" fill="url(#paint1_linear_6_2495)"/>
<path d="M94.6711 1.68164H80.6165V72.3998H100.332V7.34619C100.332 4.21931 97.798 1.68164 94.6675 1.68164H94.6711Z" fill="url(#paint2_linear_6_2495)"/>
<g opacity="0.3">
<path d="M94.671 1.68115H40.6067C37.4798 1.68115 34.9421 4.21521 34.9421 7.3457V9.72791C34.9421 6.60102 37.4762 4.06335 40.6067 4.06335H94.671C97.7979 4.06335 100.336 6.59741 100.336 9.72791V7.3457C100.336 4.21882 97.8015 1.68115 94.671 1.68115Z" fill="#F2F2F2"/>
</g>
<path d="M101.071 118.937C119.537 100.472 119.537 70.534 101.071 52.069C82.6064 33.6039 52.6686 33.6039 34.2035 52.069C15.7384 70.534 15.7384 100.472 34.2035 118.937C52.6686 137.402 82.6064 137.402 101.071 118.937Z" fill="url(#paint3_linear_6_2495)"/>
<path opacity="0.3" d="M67.6387 131.17C41.7958 131.17 20.8078 110.435 20.374 84.6938C20.3704 84.965 20.3523 85.2325 20.3523 85.5036C20.3523 111.618 41.5211 132.786 67.6351 132.786C93.7491 132.786 114.918 111.618 114.918 85.5036C114.918 85.2325 114.903 84.965 114.896 84.6938C114.462 110.432 93.4743 131.17 67.6315 131.17H67.6387Z" fill="#1A1A1A"/>
<g opacity="0.5">
<path d="M67.6387 39.6903C93.5069 39.6903 114.509 60.4651 114.903 86.2393C114.907 85.9935 114.922 85.7513 114.922 85.5055C114.922 59.3915 93.7527 38.2227 67.6387 38.2227C41.5248 38.2227 20.356 59.3915 20.356 85.5055C20.356 85.7513 20.3704 85.9935 20.374 86.2393C20.7681 60.4651 41.7706 39.6903 67.6387 39.6903Z" fill="#F2F2F2"/>
</g>
<path d="M67.6394 38.2204C93.7534 38.2204 114.922 59.3892 114.922 85.5032C114.922 111.617 93.7534 132.786 67.6394 132.786C41.5254 132.786 20.3566 111.617 20.3566 85.5032C20.3566 59.3892 41.5254 38.2204 67.6394 38.2204ZM67.6394 36.854C54.6439 36.854 42.4255 41.9148 33.2365 51.1039C24.0474 60.2929 18.9866 72.5113 18.9866 85.5068C18.9866 98.5023 24.0474 110.721 33.2365 119.91C42.4255 129.099 54.6439 134.16 67.6394 134.16C80.6349 134.16 92.8533 129.099 102.042 119.91C111.231 110.721 116.292 98.5023 116.292 85.5068C116.292 72.5113 111.231 60.2929 102.042 51.1039C92.8533 41.9148 80.6349 36.854 67.6394 36.854Z" fill="#3A2000"/>
<path d="M95.0393 112.904C110.173 97.771 110.173 73.2348 95.0393 58.1014C79.9059 42.9679 55.3697 42.9679 40.2363 58.1014C25.1028 73.2348 25.1028 97.771 40.2363 112.904C55.3697 128.038 79.9059 128.038 95.0393 112.904Z" fill="#3A2000"/>
<path opacity="0.6" d="M67.6388 48.2723C88.1678 48.2723 104.872 64.9731 104.872 85.5057C104.872 106.038 88.1714 122.739 67.6388 122.739C47.1063 122.739 30.4055 106.038 30.4055 85.5057C30.4055 64.9731 47.1063 48.2723 67.6388 48.2723ZM67.6388 46.7505C46.2387 46.7505 28.8872 64.102 28.8872 85.5021C28.8872 106.902 46.2351 124.254 67.6388 124.254C89.0426 124.254 106.39 106.906 106.39 85.5021C106.39 64.0983 89.0426 46.7505 67.6388 46.7505Z" fill="#1A1A1A"/>
<path d="M91.1156 108.981C104.082 96.0143 104.082 74.9915 91.1156 62.025C78.1491 49.0585 57.1263 49.0585 44.1598 62.025C31.1933 74.9915 31.1933 96.0143 44.1598 108.981C57.1263 121.947 78.1491 121.947 91.1156 108.981Z" fill="url(#paint4_linear_6_2495)"/>
<path opacity="0.5" d="M67.6391 53.437C85.3195 53.437 99.7031 67.8207 99.7031 85.5011C99.7031 103.182 85.3195 117.565 67.6391 117.565C49.9586 117.565 35.575 103.182 35.575 85.5011C35.575 67.8207 49.9586 53.437 67.6391 53.437ZM67.6391 52.2983C49.3007 52.2983 34.4363 67.1628 34.4363 85.5011C34.4363 103.839 49.3007 118.704 67.6391 118.704C85.9774 118.704 100.842 103.839 100.842 85.5011C100.842 67.1628 85.9774 52.2983 67.6391 52.2983Z" fill="#F2F2F2"/>
<path d="M65.1668 68.8002C65.9729 67.9941 66.8477 67.5928 67.7912 67.5928C68.7347 67.5928 69.4721 67.6723 69.9999 67.8241C70.5277 67.9796 70.9289 68.1567 71.2073 68.3591C71.4856 68.5616 71.7025 68.8941 71.858 69.3568C72.0134 69.8846 72.0893 70.7052 72.0893 71.8186V97.7012C72.0893 98.4134 72.0676 98.9484 72.0206 99.3063C71.9736 99.6641 71.8254 100.073 71.5796 100.539C71.1458 101.374 69.9385 101.793 67.9539 101.793C65.9693 101.793 64.8415 101.392 64.3751 100.586C64.1257 100.12 63.9811 99.6966 63.9341 99.3098C63.8871 98.923 63.8654 98.3555 63.8654 97.6145V81.0257L63.2618 81.5824C61.9893 82.544 60.9085 83.0212 60.0084 83.0212C59.1082 83.0212 58.172 82.4789 57.196 81.3944C56.2199 80.31 55.7319 79.3484 55.7319 78.5134C55.7319 77.6784 56.2886 76.7638 57.4056 75.7733L65.0258 68.8942L65.1632 68.8002H65.1668Z" fill="#3A2000"/>
<g opacity="0.5">
<path d="M67.7906 67.5926C68.7341 67.5926 69.4715 67.6685 69.9993 67.824C70.5234 67.9794 70.9283 68.1565 71.2067 68.359C71.485 68.5614 71.7019 68.894 71.8573 69.3567C72.0128 69.8845 72.0887 70.7051 72.0887 71.8184V97.7011C72.0887 98.4132 72.067 98.9482 72.02 99.3061C71.973 99.664 71.8248 100.072 71.579 100.539C71.1452 101.374 69.9378 101.793 67.9533 101.793C65.9687 101.793 64.8408 101.392 64.3745 100.586C64.1251 100.119 63.9805 99.6965 63.9335 99.3097C63.8865 98.9229 63.8648 98.3554 63.8648 97.6143V81.0256L63.2611 81.5823C61.9887 82.5438 60.9078 83.021 60.0077 83.021C59.1076 83.021 58.1714 82.4788 57.1953 81.3943C56.2193 80.3098 55.7313 79.3483 55.7313 78.5132C55.7313 77.6782 56.288 76.7636 57.405 75.7731L65.0252 68.894L65.1625 68.8C65.9687 67.9939 66.8435 67.5926 67.787 67.5926M67.7906 66.8335C66.6627 66.8335 65.618 67.2962 64.6818 68.2108L64.6022 68.265L64.5552 68.2975L64.5155 68.3337L56.8953 75.2128C55.6012 76.3624 54.9722 77.4432 54.9722 78.5205C54.9722 79.5977 55.5144 80.6713 56.6314 81.9112C57.752 83.1584 58.8871 83.7873 60.0077 83.7873C60.9259 83.7873 61.9453 83.4078 63.1057 82.6306V97.6179C63.1057 98.3987 63.131 98.9843 63.1816 99.4037C63.2394 99.8844 63.4166 100.401 63.7057 100.947L63.713 100.958L63.7202 100.969C64.3347 102.039 65.7229 102.56 67.9569 102.56C70.1909 102.56 71.673 102.014 72.255 100.897C72.5442 100.354 72.7177 99.8664 72.7755 99.4145C72.8261 99.0205 72.8514 98.4638 72.8514 97.7119V71.8293C72.8514 70.6328 72.7647 69.758 72.5875 69.1543V69.1398L72.5803 69.1253C72.3743 68.5108 72.0634 68.0481 71.6549 67.7517C71.3043 67.4987 70.8307 67.2854 70.2162 67.1046C69.6089 66.9275 68.8172 66.8407 67.7942 66.8407L67.7906 66.8335Z" fill="#F2F2F2"/>
</g>
<path d="M61.9417 112.94C61.1501 112.94 60.5103 112.301 60.5103 111.509V107.804C60.5103 107.012 61.1501 106.372 61.9417 106.372C62.7334 106.372 63.3732 107.012 63.3732 107.804V111.509C63.3732 112.301 62.7334 112.94 61.9417 112.94Z" fill="#3A2000"/>
<path d="M67.6388 112.94C66.8471 112.94 66.2073 112.301 66.2073 111.509V107.804C66.2073 107.012 66.8471 106.372 67.6388 106.372C68.4304 106.372 69.0703 107.012 69.0703 107.804V111.509C69.0703 112.301 68.4304 112.94 67.6388 112.94Z" fill="#3A2000"/>
<path d="M73.3363 112.94C72.5446 112.94 71.9048 112.301 71.9048 111.509V107.804C71.9048 107.012 72.5446 106.372 73.3363 106.372C74.1279 106.372 74.7678 107.012 74.7678 107.804V111.509C74.7678 112.301 74.1279 112.94 73.3363 112.94Z" fill="#3A2000"/>
<path d="M48.2205 99.4869C49.3014 101.388 46.695 103.232 45.3431 101.515C45.2997 101.461 45.2563 101.406 45.2129 101.349C42.2162 97.5602 40.369 92.9223 39.6894 88.1108C38.9953 83.303 39.8087 78.0651 42.2307 73.8465C43.373 71.7028 44.9454 69.7906 46.6697 68.2036C48.394 66.6601 50.2629 65.2141 52.3307 64.1875C50.8955 66.0094 49.5689 67.7735 48.3687 69.6641C47.1397 71.486 46.189 73.3693 45.4624 75.3358C43.9983 79.2941 43.6477 83.379 44.208 87.4963C44.7791 91.6173 46.095 95.6732 48.1591 99.3712C48.1808 99.4074 48.2025 99.4435 48.2205 99.4833V99.4869Z" fill="#3A2000"/>
<path d="M51.2099 104.458C51.2099 105.297 50.5302 105.976 49.6916 105.976C48.8529 105.976 48.1733 105.297 48.1733 104.458C48.1733 103.62 48.8529 102.94 49.6916 102.94C50.5302 102.94 51.2099 103.62 51.2099 104.458Z" fill="#3A2000"/>
<path d="M54.8356 107.497C54.8356 108.336 54.156 109.016 53.3173 109.016C52.4787 109.016 51.7991 108.336 51.7991 107.497C51.7991 106.659 52.4787 105.979 53.3173 105.979C54.156 105.979 54.8356 106.659 54.8356 107.497Z" fill="#3A2000"/>
<path d="M87.0581 99.4869C85.9773 101.388 88.5836 103.232 89.9356 101.515C89.979 101.461 90.0223 101.406 90.0657 101.349C93.0625 97.5602 94.9133 92.9223 95.5893 88.1108C96.2833 83.303 95.47 78.0651 93.048 73.8465C91.9057 71.7028 90.3332 69.7906 88.6089 68.2036C86.8846 66.6601 85.0157 65.2141 82.948 64.1875C84.3831 66.0094 85.7098 67.7735 86.9099 69.6641C88.139 71.486 89.0897 73.3693 89.8163 75.3358C91.2803 79.2941 91.631 83.379 91.0707 87.4963C90.4995 91.6173 89.1837 95.6732 87.1196 99.3712C87.0979 99.4074 87.0762 99.4435 87.0581 99.4833V99.4869Z" fill="#3A2000"/>
<path d="M84.0688 104.458C84.0688 105.297 84.7485 105.976 85.5871 105.976C86.4258 105.976 87.1054 105.297 87.1054 104.458C87.1054 103.62 86.4258 102.94 85.5871 102.94C84.7485 102.94 84.0688 103.62 84.0688 104.458Z" fill="#3A2000"/>
<path d="M80.4395 107.497C80.4395 108.336 81.1191 109.016 81.9577 109.016C82.7964 109.016 83.476 108.336 83.476 107.497C83.476 106.659 82.7964 105.979 81.9577 105.979C81.1191 105.979 80.4395 106.659 80.4395 107.497Z" fill="#3A2000"/>
<defs>
<linearGradient id="paint0_linear_6_2495" x1="67.6386" y1="80.8153" x2="67.6386" y2="1.68164" gradientUnits="userSpaceOnUse">
<stop stop-color="#DE9700"/>
<stop offset="0.23" stop-color="#E4A817"/>
<stop offset="0.69" stop-color="#F3D452"/>
<stop offset="1" stop-color="#FFF57F"/>
</linearGradient>
<linearGradient id="paint1_linear_6_2495" x1="44.8033" y1="72.3998" x2="44.8033" y2="1.68164" gradientUnits="userSpaceOnUse">
<stop stop-color="#AD2E3C"/>
<stop offset="0.35" stop-color="#B0303C"/>
<stop offset="0.69" stop-color="#BC373F"/>
<stop offset="1" stop-color="#CE4343"/>
</linearGradient>
<linearGradient id="paint2_linear_6_2495" x1="90.4743" y1="72.3998" x2="90.4743" y2="1.68164" gradientUnits="userSpaceOnUse">
<stop stop-color="#AD2E3C"/>
<stop offset="0.35" stop-color="#B0303C"/>
<stop offset="0.69" stop-color="#BC373F"/>
<stop offset="1" stop-color="#CE4343"/>
</linearGradient>
<linearGradient id="paint3_linear_6_2495" x1="67.6405" y1="132.789" x2="67.6405" y2="38.2199" gradientUnits="userSpaceOnUse">
<stop stop-color="#BE6D00"/>
<stop offset="0.09" stop-color="#BF7103"/>
<stop offset="0.19" stop-color="#C57D0F"/>
<stop offset="0.28" stop-color="#CF9122"/>
<stop offset="0.38" stop-color="#DDAE3C"/>
<stop offset="0.47" stop-color="#EED25E"/>
<stop offset="0.55" stop-color="#FFF57F"/>
<stop offset="0.99" stop-color="#DE9700"/>
</linearGradient>
<linearGradient id="paint4_linear_6_2495" x1="67.6407" y1="118.709" x2="67.6407" y2="52.2999" gradientUnits="userSpaceOnUse">
<stop stop-color="#BE6D00"/>
<stop offset="0.09" stop-color="#BF7103"/>
<stop offset="0.19" stop-color="#C57D0F"/>
<stop offset="0.28" stop-color="#CF9122"/>
<stop offset="0.38" stop-color="#DDAE3C"/>
<stop offset="0.47" stop-color="#EED25E"/>
<stop offset="0.55" stop-color="#FFF57F"/>
<stop offset="0.99" stop-color="#DE9700"/>
</linearGradient>
</defs>
</svg>
