<svg width="134" height="153" viewBox="0 0 134 153" fill="none" xmlns="http://www.w3.org/2000/svg">
<path d="M40.0469 2.31055H94.1112C97.2381 2.31055 99.7757 4.84822 99.7757 7.9751V81.4478H34.386V7.9751C34.386 4.84822 36.9236 2.31055 40.0505 2.31055H40.0469Z" fill="url(#paint0_linear_6_2529)"/>
<path d="M94.1112 2.30951C97.238 2.30951 99.7757 4.84357 99.7757 7.97406V81.4467H34.3859V7.97406C34.3859 4.84718 36.92 2.30951 40.0505 2.30951H94.1148M94.1112 0.939453H40.0468C36.1681 0.939453 33.0159 4.09528 33.0159 7.97044V82.8132H101.142V7.97044C101.142 4.09167 97.9863 0.939453 94.1112 0.939453Z" fill="#1A1A1A"/>
<path d="M54.1016 73.0287V2.31055H40.0469C36.92 2.31055 34.3823 4.8446 34.3823 7.9751V73.0287H54.0979H54.1016Z" fill="url(#paint1_linear_6_2529)"/>
<path d="M94.1109 2.31055H80.0562V73.0287H99.7718V7.9751C99.7718 4.84822 97.2377 2.31055 94.1072 2.31055H94.1109Z" fill="url(#paint2_linear_6_2529)"/>
<g opacity="0.3">
<path d="M94.1109 2.31104H40.0466C36.9197 2.31104 34.3821 4.84509 34.3821 7.97559V10.3578C34.3821 7.23091 36.9161 4.69324 40.0466 4.69324H94.1109C97.2378 4.69324 99.7755 7.22729 99.7755 10.3578V7.97559C99.7755 4.84871 97.2414 2.31104 94.1109 2.31104Z" fill="#F2F2F2"/>
</g>
<path d="M100.513 119.566C118.978 101.101 118.978 71.1629 100.513 52.6979C82.0478 34.2328 52.11 34.2328 33.6449 52.6979C15.1798 71.1629 15.1799 101.101 33.6449 119.566C52.11 138.031 82.0478 138.031 100.513 119.566Z" fill="url(#paint3_linear_6_2529)"/>
<path opacity="0.3" d="M67.0786 131.799C41.2358 131.799 20.2477 111.064 19.8139 85.3257C19.8103 85.5968 19.7922 85.8643 19.7922 86.1354C19.7922 112.249 40.9611 133.418 67.075 133.418C93.189 133.418 114.358 112.249 114.358 86.1354C114.358 85.8643 114.343 85.5968 114.336 85.3257C113.902 111.064 92.9143 131.799 67.0714 131.799H67.0786Z" fill="#1A1A1A"/>
<g opacity="0.5">
<path d="M67.0787 40.3207C92.9469 40.3207 113.949 61.0955 114.343 86.8697C114.347 86.6239 114.361 86.3816 114.361 86.1358C114.361 60.0219 93.1927 38.853 67.0787 38.853C40.9647 38.853 19.7959 60.0219 19.7959 86.1358C19.7959 86.3816 19.8104 86.6239 19.814 86.8697C20.208 61.0955 41.2105 40.3207 67.0787 40.3207Z" fill="#F2F2F2"/>
</g>
<path d="M67.0786 38.8493C93.1926 38.8493 114.361 60.0181 114.361 86.1321C114.361 112.246 93.1926 133.415 67.0786 133.415C40.9646 133.415 19.7958 112.246 19.7958 86.1321C19.7958 60.0181 40.9646 38.8493 67.0786 38.8493ZM67.0786 37.4829C54.0831 37.4829 41.8647 42.5437 32.6757 51.7328C23.4866 60.9218 18.4258 73.1402 18.4258 86.1357C18.4258 99.1313 23.4866 111.35 32.6757 120.539C41.8647 129.728 54.0831 134.789 67.0786 134.789C80.0742 134.789 92.2925 129.728 101.482 120.539C110.671 111.35 115.731 99.1313 115.731 86.1357C115.731 73.1402 110.671 60.9218 101.482 51.7328C92.2925 42.5437 80.0742 37.4829 67.0786 37.4829Z" fill="#1A1A1A"/>
<path d="M67.0788 124.886C88.4807 124.886 105.83 107.536 105.83 86.1339C105.83 64.732 88.4807 47.3823 67.0788 47.3823C45.6769 47.3823 28.3271 64.732 28.3271 86.1339C28.3271 107.536 45.6769 124.886 67.0788 124.886Z" fill="url(#paint4_radial_6_2529)"/>
<path opacity="0.6" d="M67.0788 48.9042C87.6078 48.9042 104.312 65.605 104.312 86.1376C104.312 106.67 87.6114 123.371 67.0788 123.371C46.5462 123.371 29.8454 106.67 29.8454 86.1376C29.8454 65.605 46.5462 48.9042 67.0788 48.9042ZM67.0788 47.3823C45.6786 47.3823 28.3271 64.7302 28.3271 86.1339C28.3271 107.538 45.675 124.886 67.0788 124.886C88.4826 124.886 105.83 107.538 105.83 86.1339C105.83 64.7302 88.4826 47.3823 67.0788 47.3823Z" fill="#1A1A1A"/>
<path d="M90.557 109.61C103.524 96.6432 103.524 75.6204 90.557 62.6539C77.5905 49.6874 56.5677 49.6874 43.6012 62.6539C30.6347 75.6204 30.6347 96.6432 43.6012 109.61C56.5677 122.576 77.5905 122.576 90.557 109.61Z" fill="url(#paint5_linear_6_2529)"/>
<path opacity="0.5" d="M67.0783 54.0689C84.7587 54.0689 99.1423 68.4525 99.1423 86.1329C99.1423 103.813 84.7587 118.197 67.0783 118.197C49.3978 118.197 35.0142 103.813 35.0142 86.1329C35.0142 68.4525 49.3978 54.0689 67.0783 54.0689ZM67.0783 52.9302C48.7399 52.9302 33.8755 67.7946 33.8755 86.1329C33.8755 104.471 48.7399 119.336 67.0783 119.336C85.4166 119.336 100.281 104.471 100.281 86.1329C100.281 67.7946 85.4166 52.9302 67.0783 52.9302Z" fill="#F2F2F2"/>
<path d="M61.3817 113.569C60.59 113.569 59.9502 112.929 59.9502 112.137V108.432C59.9502 107.64 60.59 107 61.3817 107C62.1734 107 62.8132 107.64 62.8132 108.432V112.137C62.8132 112.929 62.1734 113.569 61.3817 113.569Z" fill="url(#paint6_radial_6_2529)"/>
<path d="M67.0785 113.569C66.2868 113.569 65.647 112.929 65.647 112.137V108.432C65.647 107.64 66.2868 107 67.0785 107C67.8701 107 68.51 107.64 68.51 108.432V112.137C68.51 112.929 67.8701 113.569 67.0785 113.569Z" fill="url(#paint7_radial_6_2529)"/>
<path d="M72.776 113.569C71.9843 113.569 71.3445 112.929 71.3445 112.137V108.432C71.3445 107.64 71.9843 107 72.776 107C73.5676 107 74.2075 107.64 74.2075 108.432V112.137C74.2075 112.929 73.5676 113.569 72.776 113.569Z" fill="url(#paint8_radial_6_2529)"/>
<path d="M47.6595 100.119C48.7403 102.02 46.134 103.864 44.782 102.147C44.7386 102.092 44.6953 102.038 44.6519 101.98C41.6551 98.192 39.8043 93.5541 39.1283 88.7427C38.4343 83.9349 39.2476 78.6969 41.6696 74.4783C42.8119 72.3347 44.3844 70.4224 46.1087 68.8355C47.833 67.2919 49.7019 65.846 51.7696 64.8193C50.3345 66.6412 49.0079 68.4053 47.8077 70.2959C46.5786 72.1178 45.6279 74.0011 44.9013 75.9676C43.4373 79.926 43.0867 84.0108 43.647 88.1282C44.2181 92.2491 45.5339 96.305 47.598 100.003C47.6197 100.039 47.6414 100.075 47.6595 100.115V100.119Z" fill="url(#paint9_radial_6_2529)"/>
<path d="M50.6488 105.09C50.6488 105.929 49.9692 106.608 49.1306 106.608C48.2919 106.608 47.6123 105.929 47.6123 105.09C47.6123 104.251 48.2919 103.572 49.1306 103.572C49.9692 103.572 50.6488 104.251 50.6488 105.09Z" fill="url(#paint10_radial_6_2529)"/>
<path d="M54.2745 108.129C54.2745 108.968 53.595 109.647 52.7563 109.647C51.9176 109.647 51.238 108.968 51.238 108.129C51.238 107.29 51.9176 106.611 52.7563 106.611C53.595 106.611 54.2745 107.29 54.2745 108.129Z" fill="url(#paint11_radial_6_2529)"/>
<path d="M86.4973 100.119C85.4165 102.02 88.0228 103.864 89.3748 102.147C89.4182 102.092 89.4616 102.038 89.5049 101.98C92.5017 98.192 94.3489 93.5541 95.0285 88.7427C95.7225 83.9349 94.9092 78.6969 92.4872 74.4783C91.3449 72.3347 89.7724 70.4224 88.0481 68.8355C86.3238 67.2919 84.4549 65.846 82.3872 64.8193C83.8223 66.6412 85.149 68.4053 86.3491 70.2959C87.5782 72.1178 88.5289 74.0011 89.2555 75.9676C90.7195 79.926 91.0702 84.0108 90.5099 88.1282C89.9387 92.2491 88.6229 96.305 86.5588 100.003C86.5371 100.039 86.5154 100.075 86.4973 100.115V100.119Z" fill="url(#paint12_radial_6_2529)"/>
<path d="M83.5081 105.09C83.5081 105.929 84.1877 106.608 85.0263 106.608C85.865 106.608 86.5446 105.929 86.5446 105.09C86.5446 104.251 85.865 103.572 85.0263 103.572C84.1877 103.572 83.5081 104.251 83.5081 105.09Z" fill="url(#paint13_radial_6_2529)"/>
<path d="M81.4006 109.647C82.2391 109.647 82.9188 108.968 82.9188 108.129C82.9188 107.291 82.2391 106.611 81.4006 106.611C80.5621 106.611 79.8823 107.291 79.8823 108.129C79.8823 108.968 80.5621 109.647 81.4006 109.647Z" fill="url(#paint14_radial_6_2529)"/>
<path d="M76.2092 95.1952C77.478 95.1952 78.3854 95.3434 78.9276 95.6362C79.4699 95.9326 79.835 96.3808 80.0193 96.9845C80.2037 97.5882 80.2977 98.3799 80.2977 99.3559C80.2977 100.332 80.1965 101.116 79.994 101.702C79.7916 102.291 79.459 102.692 78.9963 102.909C78.3167 103.282 77.3552 103.466 76.1152 103.466H57.9468C56.8334 103.466 55.8718 103.047 55.0657 102.212C54.2596 101.377 53.8584 100.401 53.8584 99.2836C53.8584 97.6099 54.4404 96.0699 55.6007 94.6601C56.7611 93.2503 58.1637 92.043 59.8049 91.0344C61.446 90.0295 63.0872 89.0354 64.7319 88.0593C66.3731 87.0833 67.7757 85.9772 68.9361 84.7373C70.0964 83.4974 70.6784 82.1815 70.6784 80.7862C70.6784 80.5078 70.57 80.1102 70.3531 79.6005C70.1362 79.0908 69.894 78.6715 69.6337 78.3461C69.3698 78.0208 68.9614 77.7171 68.4011 77.4388C67.8444 77.1604 67.0672 77.0195 66.0767 77.0195C65.0862 77.0195 64.2259 77.3846 63.4956 78.1112C62.7691 78.8378 62.357 79.5608 62.263 80.2729L62.0786 81.3429V81.6212C62.0786 82.3045 62.0569 82.8142 62.0099 83.154C61.9629 83.4938 61.8147 83.8841 61.5689 84.3143C61.1026 85.059 59.8952 85.4314 57.9432 85.4314C55.7742 85.4314 54.4873 84.8421 54.0861 83.6637C53.9307 83.1684 53.8547 82.3804 53.8547 81.2923C53.8547 78.0714 55.0079 75.1831 57.3178 72.6274C59.6241 70.0717 62.6461 68.792 66.3803 68.792C70.1145 68.792 73.1402 70.0861 75.4646 72.6744C77.7889 75.2626 78.9493 78.2124 78.9493 81.5273C78.9493 83.2949 78.5625 84.965 77.7889 86.5447C77.0154 88.1244 76.0827 89.3969 75.0019 90.3548C72.71 92.4009 70.664 93.7781 68.8674 94.4902L67.707 94.9566V95.1879H76.2128L76.2092 95.1952Z" fill="url(#paint15_radial_6_2529)"/>
<g opacity="0.5">
<path d="M66.3804 68.7972C70.1146 68.7972 73.1403 70.0914 75.4647 72.6796C77.789 75.2679 78.9494 78.2176 78.9494 81.5325C78.9494 83.3002 78.5626 84.9703 77.7891 86.55C77.0155 88.1297 76.0828 89.4021 75.002 90.36C72.7101 92.4061 70.6641 93.7834 68.8675 94.4955L67.7071 94.9618V95.1932H76.2129C77.4818 95.1932 78.3891 95.3414 78.9313 95.6342C79.4736 95.9306 79.8387 96.3789 80.0231 96.9825C80.2074 97.5862 80.3014 98.3779 80.3014 99.3539C80.3014 100.33 80.2002 101.114 79.9977 101.7C79.7953 102.289 79.4627 102.69 79 102.907C78.3204 103.28 77.3589 103.464 76.119 103.464H57.9505C56.8371 103.464 55.8756 103.045 55.0694 102.21C54.2633 101.375 53.8621 100.399 53.8621 99.2816C53.8621 97.6079 54.4441 96.068 55.6044 94.6582C56.7648 93.2483 58.1674 92.041 59.8086 91.0325C61.4497 90.0275 63.0909 89.0334 64.7357 88.0574C66.3768 87.0813 67.7794 85.9752 68.9398 84.7353C70.1002 83.4954 70.6822 82.1795 70.6822 80.7842C70.6822 80.5059 70.5737 80.1082 70.3568 79.5985C70.1399 79.0888 69.8977 78.6695 69.6375 78.3441C69.3736 78.0188 68.9651 77.7152 68.4048 77.4368C67.8481 77.1585 67.0709 77.0175 66.0804 77.0175C65.0899 77.0175 64.2296 77.3826 63.4994 78.1092C62.7728 78.8358 62.3607 79.5588 62.2667 80.2709L62.0823 81.3409V81.6193C62.0823 82.3025 62.0607 82.8122 62.0137 83.152C61.9667 83.4918 61.8184 83.8822 61.5726 84.3123C61.1063 85.057 59.8989 85.4294 57.9469 85.4294C55.778 85.4294 54.4911 84.8401 54.0898 83.6617C53.9344 83.1664 53.8585 82.3784 53.8585 81.2903C53.8585 78.0694 55.0116 75.1811 57.3215 72.6254C59.6278 70.0697 62.6499 68.79 66.384 68.79M66.3804 68.0381C62.4402 68.0381 59.2013 69.4118 56.754 72.1229C54.3284 74.8088 53.0957 77.8959 53.0957 81.2975C53.0957 82.4724 53.1825 83.3219 53.3632 83.8967V83.9039L53.3704 83.9111C53.8874 85.4257 55.4273 86.1921 57.9469 86.1921C60.199 86.1921 61.5979 85.7113 62.2161 84.7208L62.2233 84.71L62.2305 84.6955C62.5306 84.1714 62.7041 83.7014 62.7655 83.2568C62.8161 82.8809 62.8415 82.3459 62.8415 81.6229V81.4096L63.015 80.4047V80.3902L63.0186 80.3757C63.0873 79.8371 63.4307 79.2588 64.0344 78.6551C64.62 78.0695 65.2887 77.7839 66.0768 77.7839C66.9444 77.7839 67.6131 77.8959 68.0614 78.1236C68.5168 78.3514 68.8494 78.59 69.041 78.8286C69.2579 79.0961 69.464 79.4576 69.6519 79.9022C69.8905 80.4661 69.9158 80.7119 69.9158 80.7914C69.9158 81.9952 69.4133 83.1194 68.3795 84.222C67.2733 85.404 65.9141 86.4777 64.3416 87.4103C62.7403 88.361 61.081 89.3624 59.4073 90.389C57.7011 91.4337 56.2226 92.7097 55.0116 94.1774C53.7392 95.7209 53.0957 97.438 53.0957 99.2852C53.0957 100.597 53.5729 101.761 54.5164 102.741C55.4671 103.728 56.6202 104.227 57.9433 104.227H76.1117C77.4818 104.227 78.5373 104.017 79.3362 103.587C79.9797 103.28 80.4424 102.727 80.7099 101.946C80.9412 101.27 81.0533 100.424 81.0533 99.3539C81.0533 98.2839 80.9521 97.4453 80.7424 96.762C80.4966 95.9668 80.0086 95.3631 79.2856 94.969C78.6241 94.6112 77.6155 94.434 76.2021 94.434H70.7436C72.204 93.6207 73.7946 92.4459 75.5008 90.9276C76.6504 89.9082 77.6517 88.549 78.465 86.8861C79.2856 85.2088 79.7049 83.405 79.7049 81.5325C79.7049 78.0405 78.4687 74.8919 76.025 72.1735C73.5596 69.4298 70.3134 68.0417 66.3732 68.0417L66.3804 68.0381Z" fill="#F2F2F2"/>
</g>
<defs>
<linearGradient id="paint0_linear_6_2529" x1="67.0791" y1="81.4442" x2="67.0791" y2="2.31055" gradientUnits="userSpaceOnUse">
<stop stop-color="#999999"/>
<stop offset="1" stop-color="white"/>
</linearGradient>
<linearGradient id="paint1_linear_6_2529" x1="44.2401" y1="73.0287" x2="44.2401" y2="2.31055" gradientUnits="userSpaceOnUse">
<stop stop-color="#2C3E50"/>
<stop offset="1" stop-color="#34495E"/>
</linearGradient>
<linearGradient id="paint2_linear_6_2529" x1="89.914" y1="73.0287" x2="89.914" y2="2.31055" gradientUnits="userSpaceOnUse">
<stop stop-color="#2C3E50"/>
<stop offset="1" stop-color="#34495E"/>
</linearGradient>
<linearGradient id="paint3_linear_6_2529" x1="67.0797" y1="133.418" x2="67.0797" y2="38.8488" gradientUnits="userSpaceOnUse">
<stop stop-color="#666666"/>
<stop offset="0.07" stop-color="#717171"/>
<stop offset="0.2" stop-color="#8E8E8E"/>
<stop offset="0.37" stop-color="#BEBEBE"/>
<stop offset="0.56" stop-color="white"/>
<stop offset="1" stop-color="#999999"/>
</linearGradient>
<radialGradient id="paint4_radial_6_2529" cx="0" cy="0" r="1" gradientUnits="userSpaceOnUse" gradientTransform="translate(67.0788 86.1339) scale(38.7516 38.7516)">
<stop stop-color="#414141"/>
<stop offset="1" stop-color="#313131"/>
</radialGradient>
<linearGradient id="paint5_linear_6_2529" x1="67.0799" y1="119.338" x2="67.0799" y2="52.9288" gradientUnits="userSpaceOnUse">
<stop stop-color="#666666"/>
<stop offset="0.07" stop-color="#717171"/>
<stop offset="0.2" stop-color="#8E8E8E"/>
<stop offset="0.37" stop-color="#BEBEBE"/>
<stop offset="0.56" stop-color="white"/>
<stop offset="1" stop-color="#999999"/>
</linearGradient>
<radialGradient id="paint6_radial_6_2529" cx="0" cy="0" r="1" gradientUnits="userSpaceOnUse" gradientTransform="translate(61.3817 110.286) scale(2.53403 2.53405)">
<stop stop-color="#414141"/>
<stop offset="1" stop-color="#313131"/>
</radialGradient>
<radialGradient id="paint7_radial_6_2529" cx="0" cy="0" r="1" gradientUnits="userSpaceOnUse" gradientTransform="translate(67.0785 110.286) scale(2.53403 2.53405)">
<stop stop-color="#414141"/>
<stop offset="1" stop-color="#313131"/>
</radialGradient>
<radialGradient id="paint8_radial_6_2529" cx="0" cy="0" r="1" gradientUnits="userSpaceOnUse" gradientTransform="translate(72.776 110.286) scale(2.53403 2.53405)">
<stop stop-color="#414141"/>
<stop offset="1" stop-color="#313131"/>
</radialGradient>
<radialGradient id="paint9_radial_6_2529" cx="0" cy="0" r="1" gradientUnits="userSpaceOnUse" gradientTransform="translate(45.3315 83.8264) scale(14.1884 14.1885)">
<stop stop-color="#414141"/>
<stop offset="1" stop-color="#313131"/>
</radialGradient>
<radialGradient id="paint10_radial_6_2529" cx="0" cy="0" r="1" gradientUnits="userSpaceOnUse" gradientTransform="translate(49.1269 105.09) scale(1.51826)">
<stop stop-color="#414141"/>
<stop offset="1" stop-color="#313131"/>
</radialGradient>
<radialGradient id="paint11_radial_6_2529" cx="0" cy="0" r="1" gradientUnits="userSpaceOnUse" gradientTransform="translate(52.7563 108.129) scale(1.51825 1.51826)">
<stop stop-color="#414141"/>
<stop offset="1" stop-color="#313131"/>
</radialGradient>
<radialGradient id="paint12_radial_6_2529" cx="0" cy="0" r="1" gradientUnits="userSpaceOnUse" gradientTransform="translate(88.8253 83.8264) scale(14.1884 14.1885)">
<stop stop-color="#414141"/>
<stop offset="1" stop-color="#313131"/>
</radialGradient>
<radialGradient id="paint13_radial_6_2529" cx="0" cy="0" r="1" gradientUnits="userSpaceOnUse" gradientTransform="translate(85.0263 105.09) scale(1.51826)">
<stop stop-color="#414141"/>
<stop offset="1" stop-color="#313131"/>
</radialGradient>
<radialGradient id="paint14_radial_6_2529" cx="0" cy="0" r="1" gradientUnits="userSpaceOnUse" gradientTransform="translate(81.4006 108.129) scale(1.51825 1.51826)">
<stop stop-color="#414141"/>
<stop offset="1" stop-color="#313131"/>
</radialGradient>
<radialGradient id="paint15_radial_6_2529" cx="0" cy="0" r="1" gradientUnits="userSpaceOnUse" gradientTransform="translate(67.078 86.1326) scale(15.4139 15.4139)">
<stop stop-color="#414141"/>
<stop offset="1" stop-color="#313131"/>
</radialGradient>
</defs>
</svg>
