<svg width="134" height="153" viewBox="0 0 134 153" fill="none" xmlns="http://www.w3.org/2000/svg">
<path d="M40.0181 2.29883H94.0824C97.2093 2.29883 99.7469 4.8365 99.7469 7.96338V81.4361H34.3572V7.96338C34.3572 4.8365 36.8948 2.29883 40.0217 2.29883H40.0181Z" fill="url(#paint0_linear_6_2564)"/>
<path d="M94.0824 2.29779C97.2093 2.29779 99.7469 4.83185 99.7469 7.96234V81.435H34.3571V7.96234C34.3571 4.83546 36.8912 2.29779 40.0216 2.29779H94.0859M94.0824 0.927734H40.018C36.1393 0.927734 32.9871 4.08356 32.9871 7.95873V82.8015H101.113V7.95873C101.113 4.07995 97.9575 0.927734 94.0824 0.927734Z" fill="#301405"/>
<path d="M54.0727 73.017V2.29883H40.018C36.8912 2.29883 34.3535 4.83288 34.3535 7.96338V73.017H54.0691H54.0727Z" fill="url(#paint1_linear_6_2564)"/>
<path d="M94.0821 2.29883H80.0273V73.017H99.743V7.96338C99.743 4.8365 97.2089 2.29883 94.0784 2.29883H94.0821Z" fill="url(#paint2_linear_6_2564)"/>
<g opacity="0.3">
<path d="M94.0824 2.29883H40.018C36.8912 2.29883 34.3535 4.83288 34.3535 7.96338V10.3456C34.3535 7.2187 36.8875 4.68103 40.018 4.68103H94.0824C97.2093 4.68103 99.7469 7.21508 99.7469 10.3456V7.96338C99.7469 4.8365 97.2129 2.29883 94.0824 2.29883Z" fill="#F2F2F2"/>
</g>
<path d="M100.483 119.554C118.948 101.089 118.948 71.1512 100.483 52.6862C82.0175 34.2211 52.0797 34.2211 33.6147 52.6861C15.1496 71.1512 15.1496 101.089 33.6147 119.554C52.0797 138.019 82.0176 138.019 100.483 119.554Z" fill="url(#paint3_linear_6_2564)"/>
<path opacity="0.3" d="M67.0498 131.787C41.207 131.787 20.2189 111.052 19.7851 85.314C19.7815 85.5851 19.7634 85.8526 19.7634 86.1237C19.7634 112.238 40.9323 133.406 67.0462 133.406C93.1602 133.406 114.329 112.238 114.329 86.1237C114.329 85.8526 114.315 85.5851 114.307 85.314C113.874 111.052 92.8855 131.787 67.0426 131.787H67.0498Z" fill="#1A1A1A"/>
<g opacity="0.5">
<path d="M67.0501 40.306C92.9183 40.306 113.921 61.0808 114.315 86.855C114.318 86.6092 114.333 86.367 114.333 86.1212C114.333 60.0072 93.1641 38.8384 67.0501 38.8384C40.9362 38.8384 19.7673 60.0072 19.7673 86.1212C19.7673 86.367 19.7818 86.6092 19.7854 86.855C20.1794 61.0808 41.182 40.306 67.0501 40.306Z" fill="#F2F2F2"/>
</g>
<path d="M67.0498 38.8376C93.1638 38.8376 114.333 60.0064 114.333 86.1204C114.333 112.234 93.1638 133.403 67.0498 133.403C40.9358 133.403 19.767 112.234 19.767 86.1204C19.767 60.0064 40.9358 38.8376 67.0498 38.8376ZM67.0498 37.4712C54.0543 37.4712 41.8359 42.532 32.6469 51.7211C23.4578 60.9101 18.397 73.1285 18.397 86.124C18.397 99.1195 23.4578 111.338 32.6469 120.527C41.8359 129.716 54.0543 134.777 67.0498 134.777C80.0453 134.777 92.2636 129.716 101.453 120.527C110.642 111.338 115.703 99.1195 115.703 86.124C115.703 73.1285 110.642 60.9101 101.453 51.7211C92.2636 42.532 80.0453 37.4712 67.0498 37.4712Z" fill="#301405"/>
<path d="M67.05 124.871C88.4519 124.871 105.802 107.521 105.802 86.1193C105.802 64.7174 88.4519 47.3677 67.05 47.3677C45.648 47.3677 28.2983 64.7174 28.2983 86.1193C28.2983 107.521 45.648 124.871 67.05 124.871Z" fill="#3A2000"/>
<path opacity="0.6" d="M67.05 48.8895C87.579 48.8895 104.283 65.5903 104.283 86.1229C104.283 106.656 87.5826 123.356 67.05 123.356C46.5174 123.356 29.8166 106.656 29.8166 86.1229C29.8166 65.5903 46.5174 48.8895 67.05 48.8895ZM67.05 47.3677C45.6498 47.3677 28.2983 64.7155 28.2983 86.1193C28.2983 107.523 45.6462 124.871 67.05 124.871C88.4538 124.871 105.802 107.523 105.802 86.1193C105.802 64.7155 88.4538 47.3677 67.05 47.3677Z" fill="#1A1A1A"/>
<path d="M90.5267 109.598C103.493 96.6315 103.493 75.6087 90.5267 62.6422C77.5603 49.6757 56.5374 49.6757 43.5709 62.6422C30.6044 75.6087 30.6044 96.6315 43.5709 109.598C56.5374 122.565 77.5603 122.565 90.5267 109.598Z" fill="url(#paint4_linear_6_2564)"/>
<path opacity="0.5" d="M67.0502 54.0542C84.7306 54.0542 99.1143 68.4379 99.1143 86.1183C99.1143 103.799 84.7306 118.182 67.0502 118.182C49.3698 118.182 34.9861 103.799 34.9861 86.1183C34.9861 68.4379 49.3698 54.0542 67.0502 54.0542ZM67.0502 52.9155C48.7119 52.9155 33.8474 67.78 33.8474 86.1183C33.8474 104.457 48.7119 119.321 67.0502 119.321C85.3885 119.321 100.253 104.457 100.253 86.1183C100.253 67.78 85.3885 52.9155 67.0502 52.9155Z" fill="#F2F2F2"/>
<path d="M61.3529 113.558C60.5612 113.558 59.9214 112.918 59.9214 112.127V108.421C59.9214 107.63 60.5612 106.99 61.3529 106.99C62.1446 106.99 62.7844 107.63 62.7844 108.421V112.127C62.7844 112.918 62.1446 113.558 61.3529 113.558Z" fill="#3A2000"/>
<path d="M67.0497 113.558C66.258 113.558 65.6182 112.918 65.6182 112.127V108.421C65.6182 107.63 66.258 106.99 67.0497 106.99C67.8413 106.99 68.4812 107.63 68.4812 108.421V112.127C68.4812 112.918 67.8413 113.558 67.0497 113.558Z" fill="#3A2000"/>
<path d="M72.7472 113.558C71.9555 113.558 71.3157 112.918 71.3157 112.127V108.421C71.3157 107.63 71.9555 106.99 72.7472 106.99C73.5388 106.99 74.1787 107.63 74.1787 108.421V112.127C74.1787 112.918 73.5388 113.558 72.7472 113.558Z" fill="#3A2000"/>
<path d="M47.6304 100.106C48.7113 102.007 46.1049 103.851 44.753 102.134C44.7096 102.08 44.6662 102.026 44.6228 101.968C41.6261 98.1793 39.7789 93.5414 39.0993 88.73C38.4052 83.9222 39.2186 78.6842 41.6406 74.4656C42.7829 72.322 44.3553 70.4097 46.0797 68.8228C47.804 67.2792 49.6728 65.8333 51.7406 64.8066C50.3054 66.6285 48.9788 68.3926 47.7786 70.2832C46.5496 72.1051 45.5989 73.9885 44.8723 75.955C43.4082 79.9133 43.0576 83.9981 43.6179 88.1155C44.1891 92.2364 45.5049 96.2923 47.569 99.9904C47.5907 100.027 47.6124 100.063 47.6304 100.102V100.106Z" fill="#3A2000"/>
<path d="M50.62 105.077C50.62 105.916 49.9404 106.596 49.1018 106.596C48.2631 106.596 47.5835 105.916 47.5835 105.077C47.5835 104.239 48.2631 103.559 49.1018 103.559C49.9404 103.559 50.62 104.239 50.62 105.077Z" fill="#3A2000"/>
<path d="M54.2457 108.116C54.2457 108.955 53.5661 109.634 52.7275 109.634C51.8888 109.634 51.2092 108.955 51.2092 108.116C51.2092 107.277 51.8888 106.598 52.7275 106.598C53.5661 106.598 54.2457 107.277 54.2457 108.116Z" fill="#3A2000"/>
<path d="M86.4683 100.106C85.3874 102.007 87.9938 103.851 89.3457 102.134C89.3891 102.08 89.4325 102.026 89.4759 101.968C92.4726 98.1793 94.3234 93.5414 94.9994 88.73C95.6935 83.9222 94.8801 78.6842 92.4581 74.4656C91.3158 72.322 89.7434 70.4097 88.0191 68.8228C86.2948 67.2792 84.4259 65.8333 82.3582 64.8066C83.7933 66.6285 85.1199 68.3926 86.3201 70.2832C87.5491 72.1051 88.4999 73.9885 89.2264 75.955C90.6905 79.9133 91.0411 83.9981 90.4808 88.1155C89.9097 92.2364 88.5939 96.2923 86.5298 99.9904C86.5081 100.027 86.4864 100.063 86.4683 100.102V100.106Z" fill="#3A2000"/>
<path d="M83.479 105.077C83.479 105.916 84.1586 106.596 84.9973 106.596C85.8359 106.596 86.5155 105.916 86.5155 105.077C86.5155 104.239 85.8359 103.559 84.9973 103.559C84.1586 103.559 83.479 104.239 83.479 105.077Z" fill="#3A2000"/>
<path d="M79.8496 108.116C79.8496 108.955 80.5292 109.634 81.3679 109.634C82.2065 109.634 82.8861 108.955 82.8861 108.116C82.8861 107.277 82.2065 106.598 81.3679 106.598C80.5292 106.598 79.8496 107.277 79.8496 108.116Z" fill="#3A2000"/>
<path d="M75.971 71.7876C78.1688 73.9565 79.2714 76.3966 79.2714 79.1077C79.2714 81.8189 78.064 83.7782 75.6456 84.9856V85.3109C75.9565 85.4663 76.412 85.7989 77.0157 86.3086C77.6194 86.8183 78.1074 87.3244 78.4797 87.8196C79.5027 89.121 80.0124 90.6067 80.0124 92.2804C80.0124 95.5953 78.7725 98.3281 76.2963 100.483C73.8165 102.637 70.7041 103.711 66.9555 103.711C63.2068 103.711 60.1378 102.626 57.6616 100.457C56.7325 99.6223 55.912 98.5233 55.1998 97.1569C54.9504 96.6617 54.7805 96.2604 54.6901 95.9496L54.5961 95.4832C54.2563 94.4602 54.0864 93.6251 54.0864 92.9745C54.0864 91.1779 55.6047 90.2778 58.6412 90.2778C59.8811 90.2778 60.7017 90.4332 61.1029 90.7441C61.6307 91.1454 62.0934 91.9514 62.4983 93.1588C62.8092 94.1493 63.6587 94.894 65.054 95.3892C65.6432 95.5736 66.2939 95.6676 67.006 95.6676C68.6472 95.6676 69.8546 95.335 70.6318 94.6699C71.4054 94.0047 71.7922 93.2528 71.7922 92.4178C71.7922 91.5828 71.4126 90.8453 70.6535 90.2091C69.8944 89.5729 68.9942 89.2548 67.9568 89.2548C66.9193 89.2548 66.2144 89.2258 65.8421 89.1608C65.4697 89.0993 65.0685 88.9439 64.6347 88.6944C63.7996 88.2932 63.3803 87.1003 63.3803 85.1157C63.3803 82.9468 63.9515 81.6635 65.101 81.2586C65.6288 81.1032 66.4313 81.0273 67.5158 81.0273C69.8691 81.0273 71.0475 80.4236 71.0475 79.2162C71.0475 78.5655 70.7366 77.9474 70.1185 77.3581C69.4967 76.7689 68.64 76.4761 67.5374 76.4761C66.4349 76.4761 65.5637 76.6605 64.913 77.0328C64.2624 77.4051 63.8611 77.7774 63.7057 78.1498L63.4273 78.7065C62.7152 80.2573 61.6922 81.0309 60.3619 81.0309C59.5883 81.0309 58.7352 80.7525 57.8062 80.1958C56.2554 79.2993 55.4818 78.2582 55.4818 77.0834C55.4818 76.5882 55.836 75.5326 56.5518 73.924C56.6747 73.6456 57.0181 73.1576 57.5748 72.4599C58.1315 71.7623 58.7749 71.1514 59.5051 70.6236C60.2317 70.0958 61.2548 69.6187 62.5706 69.1849C63.8864 68.7511 65.3504 68.5342 66.9627 68.5342C70.7728 68.5342 73.7767 69.6186 75.9782 71.7876H75.971Z" fill="#3A2000"/>
<g opacity="0.5">
<path d="M66.9558 68.5352C70.7659 68.5352 73.7699 69.6197 75.9713 71.7886C78.1692 73.9575 79.2717 76.3976 79.2717 79.1088C79.2717 81.8199 78.0643 83.7792 75.646 84.9866V85.3119C75.9569 85.4674 76.4123 85.7999 77.016 86.3096C77.6197 86.8193 78.1077 87.3254 78.4801 87.8206C79.5031 89.122 80.0128 90.6077 80.0128 92.2814C80.0128 95.5963 78.7729 98.3291 76.2967 100.484C73.8168 102.638 70.7044 103.712 66.9558 103.712C63.2071 103.712 60.1381 102.627 57.6619 100.458C56.7329 99.6233 55.9123 98.5244 55.2001 97.1579C54.9507 96.6627 54.7808 96.2614 54.6905 95.9506L54.5965 95.4842C54.2567 94.4612 54.0868 93.6262 54.0868 92.9755C54.0868 91.1789 55.605 90.2788 58.6415 90.2788C59.8814 90.2788 60.702 90.4342 61.1033 90.7451C61.631 91.1464 62.0937 91.9525 62.4986 93.1598C62.8095 94.1503 63.659 94.895 65.0543 95.3902C65.6436 95.5746 66.2942 95.6686 67.0064 95.6686C68.6475 95.6686 69.8549 95.336 70.6321 94.6709C71.4057 94.0057 71.7925 93.2539 71.7925 92.4188C71.7925 91.5838 71.4129 90.8463 70.6538 90.2101C69.8947 89.5739 68.9946 89.2594 67.9571 89.2594C66.9196 89.2594 66.2147 89.2305 65.8424 89.1654C65.4701 89.104 65.0688 88.9485 64.635 88.6991C63.8 88.2978 63.3807 87.1049 63.3807 85.1203C63.3807 82.9514 63.9518 81.6681 65.1013 81.2633C65.6291 81.1078 66.4316 81.0319 67.5161 81.0319C69.8694 81.0319 71.0478 80.4282 71.0478 79.2208C71.0478 78.5702 70.737 77.952 70.1188 77.3628C69.4971 76.7736 68.6403 76.4807 67.5378 76.4807C66.4352 76.4807 65.564 76.6651 64.9134 77.0374C64.2627 77.4098 63.8614 77.7821 63.706 78.1544L63.4276 78.7111C62.7155 80.2619 61.6925 81.0355 60.3622 81.0355C59.5886 81.0355 58.7355 80.7572 57.8065 80.2005C56.2557 79.304 55.4821 78.2629 55.4821 77.088C55.4821 76.5928 55.8364 75.5373 56.5521 73.9286C56.675 73.6503 57.0184 73.1623 57.5751 72.4646C58.1318 71.7669 58.7753 71.156 59.5055 70.6282C60.2321 70.1005 61.2551 69.6233 62.5709 69.1895C63.8867 68.7557 65.3508 68.5388 66.963 68.5388M66.9558 67.7725C65.2712 67.7725 63.7132 68.0038 62.3251 68.4629C60.9189 68.9256 59.8489 69.4317 59.05 70.0101C58.2692 70.574 57.5715 71.2392 56.9751 71.9874C56.1689 72.996 55.9484 73.4009 55.8508 73.6178C54.8459 75.8879 54.7157 76.6651 54.7157 77.0844C54.7157 78.5485 55.6231 79.8173 57.4197 80.8548C58.4536 81.4765 59.4476 81.7946 60.355 81.7946C61.4864 81.7946 63.0553 81.3175 64.1072 79.0401L64.382 78.4942L64.3928 78.4725L64.4037 78.4472C64.4362 78.3713 64.5916 78.0966 65.2893 77.6989C65.8207 77.3953 66.5762 77.2399 67.5378 77.2399C68.4451 77.2399 69.1175 77.4604 69.5947 77.9159C70.061 78.3605 70.2887 78.7871 70.2887 79.2245C70.2887 80.0956 68.7813 80.2764 67.5161 80.2764C66.3485 80.2764 65.4881 80.3632 64.8844 80.5403L64.8664 80.5475L64.8483 80.5547C63.3698 81.0753 62.6215 82.6116 62.6215 85.1276C62.6215 87.4339 63.1638 88.822 64.2808 89.3787C64.7832 89.6643 65.2676 89.845 65.7195 89.9209C66.1388 89.9896 66.8509 90.0258 67.9571 90.0258C68.8174 90.0258 69.5404 90.2788 70.1658 90.8029C70.7478 91.2909 71.0334 91.8224 71.0334 92.4261C71.0334 93.0297 70.7406 93.5828 70.1369 94.1033C69.5079 94.6456 68.4559 94.9203 67.0064 94.9203C66.381 94.9203 65.8026 94.8408 65.2965 94.6817C64.1362 94.2696 63.4602 93.6985 63.2252 92.9466C62.7625 91.5621 62.2239 90.6547 61.566 90.1523C61.0165 89.7293 60.0839 89.5305 58.6415 89.5305C54.2494 89.5305 53.3276 91.4102 53.3276 92.9863C53.3276 93.7165 53.5011 94.6022 53.8626 95.6903L53.9458 96.1096L53.953 96.1457L53.9639 96.1783C54.0723 96.5362 54.253 96.9736 54.5242 97.5086C55.2797 98.9581 56.1653 100.137 57.1558 101.033C59.773 103.325 63.0662 104.482 66.9594 104.482C70.8526 104.482 74.1892 103.332 76.7991 101.066C79.438 98.7738 80.7791 95.8204 80.7791 92.2887C80.7791 90.4487 80.208 88.7895 79.0837 87.358C78.6897 86.8338 78.1583 86.2807 77.5149 85.7385C77.2691 85.5288 77.0449 85.3481 76.8389 85.1926C78.9608 83.8298 80.0381 81.7874 80.0381 79.116C80.0381 76.2096 78.8524 73.5635 76.5136 71.2572C74.1747 68.9545 70.9611 67.7869 66.963 67.7869L66.9558 67.7725Z" fill="#F2F2F2"/>
</g>
<defs>
<linearGradient id="paint0_linear_6_2564" x1="67.0503" y1="81.4324" x2="67.0503" y2="2.29883" gradientUnits="userSpaceOnUse">
<stop stop-color="#B1603C"/>
<stop offset="0.09" stop-color="#BB6E45"/>
<stop offset="0.36" stop-color="#D8945E"/>
<stop offset="0.62" stop-color="#EDB070"/>
<stop offset="0.84" stop-color="#FAC17B"/>
<stop offset="1" stop-color="#FFC87F"/>
</linearGradient>
<linearGradient id="paint1_linear_6_2564" x1="44.2113" y1="73.017" x2="44.2113" y2="2.29883" gradientUnits="userSpaceOnUse">
<stop offset="0.15" stop-color="#5C3B72"/>
<stop offset="1" stop-color="#81519B"/>
</linearGradient>
<linearGradient id="paint2_linear_6_2564" x1="89.8851" y1="73.017" x2="89.8851" y2="2.29883" gradientUnits="userSpaceOnUse">
<stop offset="0.15" stop-color="#5C3B72"/>
<stop offset="1" stop-color="#81519B"/>
</linearGradient>
<linearGradient id="paint3_linear_6_2564" x1="67.0497" y1="133.409" x2="67.0497" y2="38.8397" gradientUnits="userSpaceOnUse">
<stop stop-color="#AE5D23"/>
<stop offset="0.51" stop-color="#FFC87F"/>
<stop offset="1" stop-color="#B1603C"/>
</linearGradient>
<linearGradient id="paint4_linear_6_2564" x1="67.0499" y1="119.329" x2="67.0499" y2="52.9197" gradientUnits="userSpaceOnUse">
<stop stop-color="#AE5D23"/>
<stop offset="0.51" stop-color="#FFC87F"/>
<stop offset="1" stop-color="#B1603C"/>
</linearGradient>
</defs>
</svg>
