<svg width="75" height="75" viewBox="0 0 75 75" fill="none" xmlns="http://www.w3.org/2000/svg">
<path d="M30.2672 4.90786C33.3563 -0.876514 41.6438 -0.876514 44.7328 4.90786L73.2422 58.2422C73.9102 59.492 74.2432 60.8935 74.2085 62.3101C74.1738 63.7268 73.7727 65.1103 73.0443 66.3259C72.316 67.5414 71.2851 68.5476 70.0522 69.2462C68.8193 69.9449 67.4265 70.3123 66.0094 70.3125H8.99063C7.57354 70.3123 6.18069 69.9449 4.9478 69.2462C3.71492 68.5476 2.68405 67.5414 1.95566 66.3259C1.22726 65.1103 0.82619 63.7268 0.791519 62.3101C0.756847 60.8935 1.08976 59.492 1.75782 58.2422L30.2672 4.90786ZM38.5313 8.22192C38.4308 8.03589 38.282 7.88048 38.1004 7.77216C37.9189 7.66385 37.7114 7.60666 37.5 7.60666C37.2886 7.60666 37.0811 7.66385 36.8996 7.77216C36.718 7.88048 36.5692 8.03589 36.4688 8.22192L7.95938 61.5563C7.86386 61.7347 7.81617 61.9348 7.82095 62.1371C7.82574 62.3394 7.88282 62.537 7.98666 62.7107C8.0905 62.8844 8.23755 63.0283 8.41349 63.1283C8.58943 63.2283 8.78826 63.281 8.99063 63.2813H66.0094C66.2117 63.281 66.4106 63.2283 66.5865 63.1283C66.7625 63.0283 66.9095 62.8844 67.0133 62.7107C67.1172 62.537 67.1743 62.3394 67.179 62.1371C67.1838 61.9348 67.1361 61.7347 67.0406 61.5563L38.5313 8.22192ZM41.0156 26.9532V38.6719C41.0156 39.6043 40.6452 40.4985 39.9859 41.1578C39.3266 41.8172 38.4324 42.1875 37.5 42.1875C36.5676 42.1875 35.6734 41.8172 35.0141 41.1578C34.3548 40.4985 33.9844 39.6043 33.9844 38.6719V26.9532C33.9844 26.0208 34.3548 25.1266 35.0141 24.4673C35.6734 23.8079 36.5676 23.4375 37.5 23.4375C38.4324 23.4375 39.3266 23.8079 39.9859 24.4673C40.6452 25.1266 41.0156 26.0208 41.0156 26.9532ZM42.1875 51.5625C42.1875 52.8058 41.6936 53.998 40.8146 54.8771C39.9355 55.7562 38.7432 56.25 37.5 56.25C36.2568 56.25 35.0645 55.7562 34.1854 54.8771C33.3064 53.998 32.8125 52.8058 32.8125 51.5625C32.8125 50.3193 33.3064 49.1271 34.1854 48.248C35.0645 47.3689 36.2568 46.875 37.5 46.875C38.7432 46.875 39.9355 47.3689 40.8146 48.248C41.6936 49.1271 42.1875 50.3193 42.1875 51.5625Z" fill="black"/>
</svg>
