<svg width="24" height="19" viewBox="0 0 24 19" fill="none" xmlns="http://www.w3.org/2000/svg">
<path d="M20.5325 2.63889C19.6559 1.03653 18.0486 0.235352 16.2952 0.235352H7.52838C5.77501 0.235352 4.16775 1.03653 3.29107 2.63889C-0.0695609 8.24716 -0.800132 16.7397 1.5377 18.5023C3.87552 20.2649 9.13564 12.5735 11.9118 12.5735C14.688 12.5735 19.802 20.2649 22.2859 18.5023C24.6237 16.7397 23.8932 8.24716 20.5325 2.63889ZM8.98952 8.24716H7.52838V9.84952H6.06724V8.24716H4.6061V6.6448H6.06724V5.04244H7.52838V6.6448H8.98952V8.24716ZM16.8797 9.04834C16.8797 9.84952 16.2952 10.4905 15.5647 10.4905C14.8341 10.4905 14.2496 9.84952 14.2496 9.04834C14.2496 8.24716 14.8341 7.60622 15.5647 7.60622C16.2952 7.60622 16.8797 8.24716 16.8797 9.04834ZM19.6559 5.84362C19.6559 6.6448 19.0714 7.28574 18.3408 7.28574C17.6103 7.28574 17.0258 6.6448 17.0258 5.84362C17.0258 5.04244 17.6103 4.40149 18.3408 4.40149C19.0714 4.40149 19.6559 5.04244 19.6559 5.84362Z" fill="black" fill-opacity="0.4"/>
</svg>
