<svg width="30" height="29" viewBox="0 0 30 29" fill="none" xmlns="http://www.w3.org/2000/svg">
<path opacity="0.5" d="M1.97674 25.75C1.64947 25.75 1.33682 25.8832 1.10724 26.1182C0.877851 26.3531 0.75 26.6704 0.75 27C0.75 27.3296 0.877851 27.6469 1.10724 27.8818C1.33682 28.1168 1.64947 28.25 1.97674 28.25H28.0233C28.3505 28.25 28.6632 28.1168 28.8928 27.8818C29.1222 27.6469 29.25 27.3296 29.25 27C29.25 26.6704 29.1222 26.3531 28.8928 26.1182C28.6632 25.8832 28.3505 25.75 28.0233 25.75H2.30233H1.97674Z" fill="black" fill-opacity="0.8" stroke="#00F0FF" stroke-width="0.5"/>
<path d="M19 26.25H19.25V26V4.04054C19.25 3.06599 19.2473 2.40232 19.1609 1.90828L19.1608 1.90751C19.1186 1.67089 19.0608 1.49869 18.9899 1.36879C18.9162 1.23365 18.8338 1.15421 18.7602 1.09827C18.6052 0.980496 18.37 0.877509 17.774 0.816178L17.7735 0.816125C17.1411 0.752401 16.2889 0.75 15 0.75C13.7112 0.75 12.8571 0.752399 12.2264 0.816131L12.226 0.816178C11.63 0.877509 11.3948 0.980496 11.2398 1.09827C11.1662 1.15421 11.0838 1.23365 11.0101 1.36879C10.9392 1.49869 10.8814 1.67089 10.8392 1.90751L10.8392 1.90751L10.8391 1.9084C10.7527 2.40371 10.75 3.06591 10.75 4.04054V26V26.25H11H19Z" fill="black" fill-opacity="0.8" stroke="#00F0FF" stroke-width="0.5"/>
<path opacity="0.7" d="M3.75 26V26.25H4H10H10.25V26V10.02C10.25 9.68475 10.1195 9.36227 9.88563 9.12373C9.6516 8.88503 9.33314 8.75 9 8.75H5C4.66686 8.75 4.3484 8.88503 4.11437 9.12373C3.88052 9.36227 3.75 9.68475 3.75 10.02V26ZM19.75 26V26.25H20H26H26.25V26V16.82C26.25 16.4848 26.1195 16.1623 25.8856 15.9237C25.6516 15.685 25.3331 15.55 25 15.55H21C20.6669 15.55 20.3484 15.685 20.1144 15.9237C19.8805 16.1623 19.75 16.4848 19.75 16.82V26Z" fill="black" fill-opacity="0.8" stroke="#00F0FF" stroke-width="0.5"/>
</svg>
