<svg width="30" height="30" viewBox="0 0 30 30" fill="none" xmlns="http://www.w3.org/2000/svg">
<path d="M2.8125 12.6563H5.15625V18.2813H3.75C3.37704 18.2813 3.01935 18.4295 2.75563 18.6932C2.49191 18.9569 2.34375 19.3146 2.34375 19.6876C2.34375 20.0605 2.49191 20.4182 2.75563 20.6819C3.01935 20.9457 3.37704 21.0938 3.75 21.0938H26.25C26.623 21.0938 26.9806 20.9457 27.2444 20.6819C27.5081 20.4182 27.6562 20.0605 27.6562 19.6876C27.6562 19.3146 27.5081 18.9569 27.2444 18.6932C26.9806 18.4295 26.623 18.2813 26.25 18.2813H24.8438V12.6563H27.1875C27.4937 12.6563 27.7915 12.5564 28.0358 12.3717C28.28 12.1871 28.4573 11.9277 28.5407 11.6331C28.6241 11.3385 28.6091 11.0247 28.4979 10.7394C28.3867 10.4541 28.1854 10.2129 27.9246 10.0524L15.7371 2.55242C15.5155 2.41599 15.2603 2.34375 15 2.34375C14.7397 2.34375 14.4845 2.41599 14.2629 2.55242L2.07539 10.0524C1.81461 10.2129 1.61333 10.4541 1.50214 10.7394C1.39094 11.0247 1.3759 11.3385 1.4593 11.6331C1.5427 11.9277 1.71999 12.1871 1.96422 12.3717C2.20846 12.5564 2.5063 12.6563 2.8125 12.6563ZM7.96875 12.6563H10.7812V18.2813H7.96875V12.6563ZM16.4062 12.6563V18.2813H13.5938V12.6563H16.4062ZM22.0312 18.2813H19.2188V12.6563H22.0312V18.2813ZM15 5.40124L22.2188 9.84382H7.78125L15 5.40124ZM29.5312 24.3751C29.5312 24.748 29.3831 25.1057 29.1194 25.3694C28.8556 25.6332 28.498 25.7813 28.125 25.7813H1.875C1.50204 25.7813 1.14435 25.6332 0.880631 25.3694C0.616908 25.1057 0.46875 24.748 0.46875 24.3751C0.46875 24.0021 0.616908 23.6444 0.880631 23.3807C1.14435 23.117 1.50204 22.9688 1.875 22.9688H28.125C28.498 22.9688 28.8556 23.117 29.1194 23.3807C29.3831 23.6444 29.5312 24.0021 29.5312 24.3751Z" fill="#007880" fill-opacity="0.8"/>
</svg>
