<svg width="30" height="30" viewBox="0 0 30 30" fill="none" xmlns="http://www.w3.org/2000/svg">
<path d="M23.4375 2.34375H6.5625C5.9409 2.34375 5.34476 2.59068 4.90522 3.03022C4.46568 3.46976 4.21875 4.0659 4.21875 4.6875V25.3125C4.21875 25.9341 4.46568 26.5302 4.90522 26.9698C5.34476 27.4093 5.9409 27.6562 6.5625 27.6562H23.4375C24.0591 27.6562 24.6552 27.4093 25.0948 26.9698C25.5343 26.5302 25.7812 25.9341 25.7812 25.3125V4.6875C25.7812 4.0659 25.5343 3.46976 25.0948 3.03022C24.6552 2.59068 24.0591 2.34375 23.4375 2.34375ZM22.9688 24.8438H7.03125V5.15625H22.9688V24.8438ZM8.90625 9.375C8.90625 9.00416 9.01622 8.64165 9.22224 8.33331C9.42827 8.02496 9.72111 7.78464 10.0637 7.64273C10.4063 7.50081 10.7833 7.46368 11.147 7.53603C11.5108 7.60837 11.8449 7.78695 12.1071 8.04918C12.3693 8.3114 12.5479 8.64549 12.6202 9.00921C12.6926 9.37292 12.6554 9.74992 12.5135 10.0925C12.3716 10.4351 12.1313 10.728 11.8229 10.934C11.5146 11.14 11.1521 11.25 10.7812 11.25C10.284 11.25 9.80706 11.0525 9.45543 10.7008C9.10379 10.3492 8.90625 9.87228 8.90625 9.375ZM8.90625 20.625C8.90625 20.2542 9.01622 19.8916 9.22224 19.5833C9.42827 19.275 9.72111 19.0346 10.0637 18.8927C10.4063 18.7508 10.7833 18.7137 11.147 18.786C11.5108 18.8584 11.8449 19.037 12.1071 19.2992C12.3693 19.5614 12.5479 19.8955 12.6202 20.2592C12.6926 20.6229 12.6554 20.9999 12.5135 21.3425C12.3716 21.6851 12.1313 21.978 11.8229 22.184C11.5146 22.39 11.1521 22.5 10.7812 22.5C10.284 22.5 9.80706 22.3025 9.45543 21.9508C9.10379 21.5992 8.90625 21.1223 8.90625 20.625ZM8.90625 15C8.90625 14.6292 9.01622 14.2666 9.22224 13.9583C9.42827 13.65 9.72111 13.4096 10.0637 13.2677C10.4063 13.1258 10.7833 13.0887 11.147 13.161C11.5108 13.2334 11.8449 13.412 12.1071 13.6742C12.3693 13.9364 12.5479 14.2705 12.6202 14.6342C12.6926 14.9979 12.6554 15.3749 12.5135 15.7175C12.3716 16.0601 12.1313 16.353 11.8229 16.559C11.5146 16.765 11.1521 16.875 10.7812 16.875C10.284 16.875 9.80706 16.6775 9.45543 16.3258C9.10379 15.9742 8.90625 15.4973 8.90625 15Z" fill="#007880" fill-opacity="0.8"/>
</svg>
