<svg width="21" height="21" viewBox="0 0 21 21" fill="none" xmlns="http://www.w3.org/2000/svg">
<path d="M0.360689 7.26793C0.817069 5.8591 1.56642 4.56275 2.55951 3.46404C2.64165 3.37328 2.74892 3.30898 2.86769 3.27929C2.98646 3.24961 3.11137 3.25588 3.22657 3.29731L5.59587 4.14454C5.76454 4.20476 5.94429 4.22758 6.12266 4.21144C6.30103 4.1953 6.47376 4.14057 6.62887 4.05104C6.78398 3.96152 6.91776 3.83935 7.02095 3.69299C7.12414 3.54663 7.19426 3.37959 7.22645 3.20345L7.67857 0.72598C7.70041 0.605378 7.75765 0.494 7.843 0.406027C7.92835 0.318053 8.03796 0.257462 8.15787 0.231968C9.60493 -0.0773227 11.101 -0.0773227 12.5481 0.231968C12.668 0.257462 12.7776 0.318053 12.863 0.406027C12.9483 0.494 13.0056 0.605378 13.0274 0.72598L13.4795 3.20345C13.5117 3.37959 13.5818 3.54663 13.685 3.69299C13.7882 3.83935 13.922 3.96152 14.0771 4.05104C14.2322 4.14057 14.4049 4.1953 14.5833 4.21144C14.7617 4.22758 14.9414 4.20476 15.1101 4.14454L17.4806 3.29731C17.5959 3.25602 17.7209 3.24995 17.8397 3.27986C17.9585 3.30976 18.0657 3.3743 18.1477 3.46527C19.1406 4.56363 19.89 5.85954 20.3465 7.26793C20.384 7.38439 20.3861 7.50938 20.3524 7.62701C20.3188 7.74465 20.2509 7.84965 20.1575 7.92867L18.2366 9.55891C18.1002 9.67485 17.9906 9.81907 17.9154 9.98157C17.8402 10.1441 17.8013 10.321 17.8013 10.5C17.8013 10.679 17.8402 10.8559 17.9154 11.0184C17.9906 11.1809 18.1002 11.3252 18.2366 11.4411L20.1575 13.0713C20.2507 13.1505 20.3183 13.2556 20.3518 13.3732C20.3852 13.4908 20.3829 13.6157 20.3453 13.7321C19.8889 15.1409 19.1395 16.4372 18.1465 17.536C18.0643 17.6267 17.957 17.691 17.8383 17.7207C17.7195 17.7504 17.5946 17.7441 17.4794 17.7027L15.1101 16.8555C14.9414 16.7952 14.7617 16.7724 14.5833 16.7886C14.4049 16.8047 14.2322 16.8594 14.0771 16.949C13.922 17.0385 13.7882 17.1607 13.685 17.307C13.5818 17.4534 13.5117 17.6204 13.4795 17.7966L13.0274 20.2753C13.0053 20.3956 12.948 20.5067 12.8627 20.5945C12.7773 20.6822 12.6678 20.7426 12.5481 20.768C11.101 21.0773 9.60493 21.0773 8.15787 20.768C8.03796 20.7425 7.92835 20.6819 7.843 20.594C7.75765 20.506 7.70041 20.3946 7.67857 20.274L7.22645 17.7966C7.19426 17.6204 7.12414 17.4534 7.02095 17.307C6.91776 17.1607 6.78398 17.0385 6.62887 16.949C6.47376 16.8594 6.30103 16.8047 6.12266 16.7886C5.94429 16.7724 5.76454 16.7952 5.59587 16.8555L3.22657 17.7027C3.11126 17.744 2.98627 17.7501 2.86749 17.7201C2.74871 17.6902 2.64151 17.6257 2.55951 17.5347C1.56657 16.4364 0.817227 15.1405 0.360689 13.7321C0.323033 13.6157 0.320775 13.4908 0.354202 13.3732C0.38763 13.2556 0.455237 13.1505 0.548454 13.0713L2.46934 11.4411C2.60579 11.3252 2.7154 11.1809 2.79058 11.0184C2.86575 10.8559 2.90468 10.679 2.90468 10.5C2.90468 10.321 2.86575 10.1441 2.79058 9.98157C2.7154 9.81907 2.60579 9.67485 2.46934 9.55891L0.548454 7.92867C0.455237 7.8495 0.38763 7.74444 0.354202 7.62681C0.320775 7.50918 0.323033 7.38427 0.360689 7.26793ZM7.88363 10.5C7.88363 11.1551 8.14392 11.7834 8.60725 12.2466C9.07057 12.7098 9.69898 12.9701 10.3542 12.9701C11.0095 12.9701 11.6379 12.7098 12.1012 12.2466C12.5645 11.7834 12.8248 11.1551 12.8248 10.5C12.8248 9.8449 12.5645 9.21663 12.1012 8.75341C11.6379 8.29018 11.0095 8.02994 10.3542 8.02994C9.69898 8.02994 9.07057 8.29018 8.60725 8.75341C8.14392 9.21663 7.88363 9.8449 7.88363 10.5Z" fill="black" fill-opacity="0.4"/>
</svg>
