<svg width="40" height="40" viewBox="0 0 40 40" fill="none" xmlns="http://www.w3.org/2000/svg">
<path d="M15 4.99996V1.66663H25V4.99996H15ZM18.3333 23.3333H21.6667V13.3333H18.3333V23.3333ZM20 36.6666C17.9444 36.6666 16.0067 36.2711 14.1867 35.48C12.3667 34.6888 10.7767 33.6122 9.41667 32.25C8.05667 30.8877 6.98056 29.2972 6.18833 27.4783C5.39611 25.6594 5 23.7222 5 21.6666C5 19.6111 5.39611 17.6733 6.18833 15.8533C6.98056 14.0333 8.05667 12.4433 9.41667 11.0833C10.7767 9.72329 12.3672 8.64718 14.1883 7.85496C16.0094 7.06274 17.9467 6.66663 20 6.66663C21.7222 6.66663 23.375 6.9444 24.9583 7.49996C26.5417 8.05551 28.0278 8.86107 29.4167 9.91663L31.75 7.58329L34.0833 9.91663L31.75 12.25C32.8056 13.6388 33.6111 15.125 34.1667 16.7083C34.7222 18.2916 35 19.9444 35 21.6666C35 23.7222 34.6039 25.66 33.8117 27.48C33.0194 29.3 31.9433 30.89 30.5833 32.25C29.2233 33.61 27.6328 34.6866 25.8117 35.48C23.9906 36.2733 22.0533 36.6688 20 36.6666Z" fill="#007880"/>
</svg>
